<?xml version="1.0" encoding="utf-8"?>
<svg viewBox="0 0 500 500" xmlns="http://www.w3.org/2000/svg">
  <circle style="fill: rgb(255, 254, 254);" cx="250" cy="250" r="245"/>
  <path d="M 188.016 63.608 C 176.94 64.713 159.511 66.102 159.338 81.517 C 159.246 89.658 166.005 97.683 180.408 105.358 C 185.043 107.827 188.759 109.572 188.446 109.611 C 188.172 109.611 185.113 108.967 181.617 108.597 C 127.461 102.865 144.192 138.64 156.216 150.424 C 168.374 162.34 188.563 173.68 213.965 182.147 C 224.07 185.504 229.728 187.063 237.961 188.624 C 248.731 190.693 250.993 191.512 255.987 195.258 C 263.01 200.563 266.835 207.9 265.704 214.026 C 264.104 222.571 255.247 229.516 238.39 235.486 C 212.053 244.772 200.736 249.377 186.846 256.283 C 176.505 261.473 165.307 268.106 158.635 273.023 C 157.308 273.959 156.607 274.271 156.489 273.959 C 156.41 273.686 155.592 272.516 154.734 271.344 C 148.139 262.722 135.925 261.668 127.927 269.081 C 121.763 274.779 120.279 283.323 124.183 290.972 C 125.195 293.001 128.004 296.161 129.838 297.409 L 130.774 298.034 L 123.596 305.564 C 107.559 322.304 100.029 331.785 95.776 340.681 C 90.625 351.45 87.933 367.917 89.883 377.008 C 92.731 390.469 106.35 396.049 121.841 390.08 C 129.37 387.192 137.644 381.027 149.504 369.594 C 162.264 357.264 166.243 354.143 174.632 349.851 C 188.719 342.672 210.101 337.208 246.077 331.628 C 273.898 327.298 285.876 325.112 308.39 320.119 C 327.47 315.905 328.992 315.631 334.181 315.358 C 339.761 315.045 344.054 315.788 354.589 318.752 C 365.982 321.953 372.693 324.02 386.038 328.508 C 392.476 330.654 400.553 333.267 403.986 334.283 C 409.605 335.921 410.619 336.116 414.131 336.116 C 421.389 336.077 427.475 332.878 431.339 327.064 C 436.958 318.558 435.865 307.671 428.685 300.492 C 426.501 298.345 423.653 296.59 419.711 294.99 C 418.306 294.444 418.306 293.469 419.673 292.962 C 420.257 292.726 423.301 292.376 426.423 292.181 C 433.055 291.751 436.177 290.932 439.494 288.787 C 443.903 285.938 446.713 282.231 448.507 277.002 C 449.56 273.881 449.483 267.91 448.312 264.517 C 446.556 259.366 442.304 254.489 437.621 252.303 C 436.528 251.757 430.403 249.806 424.082 247.933 C 401.841 241.456 400.514 240.949 396.963 237.555 C 393.335 234.12 391.345 228.462 392.086 223.703 C 392.319 222.376 393.491 219.606 395.519 215.704 C 400.904 205.403 401.996 199.394 400.319 189.718 C 397.08 171.106 384.477 153.859 368.596 146.289 C 356.618 140.591 343.819 139.186 327.509 141.802 C 322.71 142.582 320.447 142.543 318.574 141.606 C 314.789 139.773 311.98 136.456 305.892 126.429 C 292.275 104.15 274.482 87.486 252.398 76.406 C 240.107 70.24 206.714 61.743 188.016 63.608 Z M 347.605 169.505 C 351.35 170.792 354.705 174.148 356.344 178.205 C 357.398 180.861 357.359 185.581 356.228 188.507 C 354.355 193.385 349.126 197.286 343.897 197.715 C 332.816 198.575 324.895 187.337 329.46 177.192 C 330.592 174.695 333.518 171.535 335.821 170.324 C 339.332 168.53 343.859 168.178 347.605 169.505 Z" style="fill: rgb(37, 41, 47);"/>
</svg>